<svg xmlns="http://www.w3.org/2000/svg">
  <defs>
    <symbol viewBox="0 0 50 50" id="icon-github">
      <path d="M17.791 46.836A1.999 1.999 0 0019 45v-5.4c0-.197.016-.402.041-.61A.611.611 0 0119 39h-3.6c-1.5 0-2.8-.6-3.4-1.8-.7-1.3-1-3.5-2.8-4.7-.3-.2-.1-.5.5-.5.6.1 1.9.9 2.7 2 .9 1.1 1.8 2 3.4 2 2.487 0 3.82-.125 4.622-.555C21.356 34.056 22.649 33 24 33v-.025c-5.668-.182-9.289-2.066-10.975-4.975-3.665.042-6.856.405-8.677.707a21.537 21.537 0 01-.151-.987c1.797-.296 4.843-.647 8.345-.714a8.162 8.162 0 01-.291-.849c-3.511-.178-6.541-.039-8.187.097-.02-.332-.047-.663-.051-.999 1.649-.135 4.597-.27 8.018-.111a9.832 9.832 0 01-.13-1.543c0-1.7.6-3.5 1.7-5-.5-1.7-1.2-5.3.2-6.6 2.7 0 4.6 1.3 5.5 2.1C21 13.4 22.9 13 25 13s4 .4 5.6 1.1c.9-.8 2.8-2.1 5.5-2.1 1.5 1.4.7 5 .2 6.6 1.1 1.5 1.7 3.2 1.6 5 0 .484-.045.951-.11 1.409 3.499-.172 6.527-.034 8.204.102-.002.337-.033.666-.051.999-1.671-.138-4.775-.28-8.359-.089a8.272 8.272 0 01-.325.98c3.546.046 6.665.389 8.548.689-.043.332-.093.661-.151.987-1.912-.306-5.171-.664-8.879-.682-1.665 2.878-5.22 4.755-10.777 4.974V33c2.6 0 5 3.9 5 6.6V45c0 .823.498 1.53 1.209 1.836C41.37 43.804 48 35.164 48 25 48 12.318 37.683 2 25 2S2 12.318 2 25c0 10.164 6.63 18.804 15.791 21.836z"/>
    </symbol>
    <symbol viewBox="0 0 50 50" id="icon-linkedin">
      <path d="M41 4H9C6.24 4 4 6.24 4 9v32c0 2.76 2.24 5 5 5h32c2.76 0 5-2.24 5-5V9c0-2.76-2.24-5-5-5zM17 20v19h-6V20h6zm-6-5.53c0-1.4 1.2-2.47 3-2.47s2.93 1.07 3 2.47c0 1.4-1.12 2.53-3 2.53-1.8 0-3-1.13-3-2.53zM39 39h-6V29c0-2-1-4-3.5-4.04h-.08C27 24.96 26 27.02 26 29v10h-6V20h6v2.56S27.93 20 31.81 20c3.97 0 7.19 2.73 7.19 8.26V39z"/>
    </symbol>
    <symbol viewBox="0 0 50 50" id="icon-telegram">
      <path d="M25 2c12.703 0 23 10.297 23 23S37.703 48 25 48 2 37.703 2 25 12.297 2 25 2zm7.934 32.375c.423-1.298 2.405-14.234 2.65-16.783.074-.772-.17-1.285-.648-1.514-.578-.278-1.434-.139-2.427.219-1.362.491-18.774 7.884-19.78 8.312-.954.405-1.856.847-1.856 1.487 0 .45.267.703 1.003.966.766.273 2.695.858 3.834 1.172 1.097.303 2.346.04 3.046-.395.742-.461 9.305-6.191 9.92-6.693.614-.502 1.104.141.602.644-.502.502-6.38 6.207-7.155 6.997-.941.959-.273 1.953.358 2.351.721.454 5.906 3.932 6.687 4.49.781.558 1.573.811 2.298.811.725 0 1.107-.955 1.468-2.064z"/>
    </symbol>
  </defs>
</svg>